<?xml version="1.0" encoding="iso-8859-1"?>
<!-- Uploaded to: SVG Repo, www.svgrepo.com, Generator: SVG Repo Mixer Tools -->
<svg version="1.1" id="Layer_1" xmlns="http://www.w3.org/2000/svg" xmlns:xlink="http://www.w3.org/1999/xlink" 
	 viewBox="0 0 512 512" xml:space="preserve">
<rect x="77.431" y="291.525" style="fill:#CFF09E;" width="357.142" height="206.179"/>
<g>
	<path style="fill:#507C5C;" d="M204.569,379.398h-21.429c-7.89,0-14.286-6.397-14.286-14.286c0-7.889,6.396-14.286,14.286-14.286
		h21.429c7.89,0,14.286,6.397,14.286,14.286C218.855,373.001,212.459,379.398,204.569,379.398z"/>
	<path style="fill:#507C5C;" d="M328.859,379.398H307.43c-7.89,0-14.286-6.397-14.286-14.286c0-7.889,6.396-14.286,14.286-14.286
		h21.429c7.89,0,14.286,6.397,14.286,14.286C343.145,373.001,336.749,379.398,328.859,379.398z"/>
	<path style="fill:#507C5C;" d="M434.569,0H77.431c-7.89,0-14.286,6.397-14.286,14.286v483.428c0,7.889,6.396,14.286,14.286,14.286
		h357.137c7.89,0,14.286-6.397,14.286-14.286V291.529c0-7.889-6.396-14.286-14.286-14.286H91.718v-57.142h342.851
		c7.89,0,14.286-6.397,14.286-14.286V14.286C448.855,6.397,442.459,0,434.569,0z M420.282,483.428H270.286V305.815h149.997V483.428z
		 M241.713,305.815v177.612H91.718V305.815H241.713z M91.718,191.527V28.572h328.565v77.249H175.521
		c-7.89,0-14.286,6.397-14.286,14.286s6.396,14.286,14.286,14.286h244.762v57.133H91.718z"/>
</g>
</svg>