<svg xmlns="http://www.w3.org/2000/svg" xmlns:xlink="http://www.w3.org/1999/xlink" version="1.1" width="256" height="256" viewBox="0 0 256 256" xml:space="preserve">

<defs>
</defs>
<g style="stroke: none; stroke-width: 0; stroke-dasharray: none; stroke-linecap: butt; stroke-linejoin: miter; stroke-miterlimit: 10; fill: none; fill-rule: nonzero; opacity: 1;" transform="translate(1.4065934065934016 1.4065934065934016) scale(2.81 2.81)" >
	<path d="M 1.922 50.211 v 3.345 c 0 0.794 0.644 1.438 1.438 1.438 h 6.344 c 0.794 0 1.438 -0.644 1.438 -1.438 v -3.345 H 1.922 z" style="stroke: none; stroke-width: 1; stroke-dasharray: none; stroke-linecap: butt; stroke-linejoin: miter; stroke-miterlimit: 10; fill: rgb(69,69,69); fill-rule: nonzero; opacity: 1;" transform=" matrix(1 0 0 1 0 0) " stroke-linecap="round" />
	<path d="M 9.704 56.02 H 3.36 c -1.359 0 -2.465 -1.106 -2.465 -2.465 v -4.371 h 11.273 v 4.371 C 12.169 54.915 11.063 56.02 9.704 56.02 z M 2.948 51.238 v 2.318 c 0 0.227 0.185 0.412 0.412 0.412 h 6.344 c 0.227 0 0.412 -0.185 0.412 -0.412 v -2.318 H 2.948 z" style="stroke: none; stroke-width: 1; stroke-dasharray: none; stroke-linecap: butt; stroke-linejoin: miter; stroke-miterlimit: 10; fill: rgb(69,69,69); fill-rule: nonzero; opacity: 1;" transform=" matrix(1 0 0 1 0 0) " stroke-linecap="round" />
	<path d="M 43.47 34.744 l -4.218 -4.38 l -2.543 -8.858 c -0.437 -1.127 -1.521 -1.869 -2.729 -1.869 H 21.305 h -9.611 c -1.208 0 -2.292 0.742 -2.729 1.869 l -2.543 8.858 l -4.218 4.38 c -0.989 1.027 -1.506 2.418 -1.427 3.841 L 1.42 50.211 h 10.602 c 0.807 0 1.566 -0.388 2.038 -1.043 l 0 0 c 0.472 -0.655 1.231 -1.043 2.038 -1.043 h 13.478 c 0.807 0 1.566 0.388 2.038 1.043 v 0 c 0.472 0.655 1.231 1.043 2.038 1.043 h 10.602 l 0.643 -11.626 C 44.976 37.162 44.459 35.77 43.47 34.744 z" style="stroke: none; stroke-width: 1; stroke-dasharray: none; stroke-linecap: butt; stroke-linejoin: miter; stroke-miterlimit: 10; fill: rgb(255,216,92); fill-rule: nonzero; opacity: 1;" transform=" matrix(1 0 0 1 0 0) " stroke-linecap="round" />
	<path d="M 44.254 50.981 H 33.653 c -1.052 0 -2.047 -0.509 -2.663 -1.362 c -0.327 -0.453 -0.855 -0.724 -1.414 -0.724 H 16.098 c -0.559 0 -1.087 0.271 -1.414 0.723 c -0.616 0.853 -1.611 1.363 -2.663 1.363 H 1.42 c -0.409 0 -0.746 -0.319 -0.769 -0.727 L 0.009 38.627 c -0.09 -1.631 0.508 -3.242 1.641 -4.418 l 4.085 -4.242 l 2.49 -8.675 c 0.007 -0.022 0.014 -0.044 0.022 -0.066 c 0.547 -1.412 1.932 -2.361 3.447 -2.361 h 22.287 c 1.515 0 2.9 0.949 3.447 2.361 c 0.009 0.022 0.016 0.044 0.022 0.066 l 2.49 8.675 l 4.085 4.242 c 1.133 1.176 1.732 2.787 1.641 4.418 l -0.643 11.627 C 45 50.662 44.663 50.981 44.254 50.981 z M 16.098 47.356 h 13.478 c 1.052 0 2.047 0.509 2.663 1.362 c 0.327 0.453 0.855 0.724 1.414 0.724 h 9.873 l 0.602 -10.899 c 0.067 -1.205 -0.375 -2.395 -1.212 -3.265 l 0 0 l -4.217 -4.38 c -0.087 -0.09 -0.151 -0.201 -0.185 -0.322 l -2.533 -8.822 c -0.327 -0.807 -1.126 -1.348 -1.999 -1.348 H 11.694 c -0.873 0 -1.672 0.54 -1.999 1.348 l -2.532 8.822 c -0.035 0.121 -0.098 0.231 -0.185 0.322 l -4.218 4.38 c -0.837 0.869 -1.279 2.059 -1.213 3.265 l 0.603 10.899 h 9.873 c 0.559 0 1.087 -0.271 1.414 -0.724 C 14.051 47.865 15.046 47.356 16.098 47.356 z" style="stroke: none; stroke-width: 1; stroke-dasharray: none; stroke-linecap: butt; stroke-linejoin: miter; stroke-miterlimit: 10; fill: rgb(255,216,92); fill-rule: nonzero; opacity: 1;" transform=" matrix(1 0 0 1 0 0) " stroke-linecap="round" />
	<path d="M 13.167 42.659 l -8.343 -0.692 c -0.653 -0.054 -1.19 -0.534 -1.318 -1.176 L 3.25 39.507 c -0.208 -1.044 0.73 -1.956 1.768 -1.717 l 8.599 1.976 c 0.667 0.153 1.139 0.747 1.139 1.431 v 0 C 14.756 42.055 14.022 42.73 13.167 42.659 z" style="stroke: none; stroke-width: 1; stroke-dasharray: none; stroke-linecap: butt; stroke-linejoin: miter; stroke-miterlimit: 10; fill: rgb(255,255,255); fill-rule: nonzero; opacity: 1;" transform=" matrix(1 0 0 1 0 0) " stroke-linecap="round" />
	<path d="M 33.548 20.053 H 21.365 h -9.238 c -1.161 0 -2.203 0.714 -2.623 1.796 l -2.444 8.514 l 0 0 h 31.556 l 0 0 l -2.444 -8.514 C 35.751 20.767 34.709 20.053 33.548 20.053 z" style="stroke: none; stroke-width: 1; stroke-dasharray: none; stroke-linecap: butt; stroke-linejoin: miter; stroke-miterlimit: 10; fill: rgb(229,229,229); fill-rule: nonzero; opacity: 1;" transform=" matrix(1 0 0 1 0 0) " stroke-linecap="round" />
	<path d="M 78.858 50.211 v 3.345 c 0 0.794 0.644 1.438 1.438 1.438 h 6.344 c 0.794 0 1.438 -0.644 1.438 -1.438 v -3.345 H 78.858 z" style="stroke: none; stroke-width: 1; stroke-dasharray: none; stroke-linecap: butt; stroke-linejoin: miter; stroke-miterlimit: 10; fill: rgb(69,69,69); fill-rule: nonzero; opacity: 1;" transform=" matrix(1 0 0 1 0 0) " stroke-linecap="round" />
	<path d="M 86.64 56.02 h -6.343 c -1.359 0 -2.465 -1.106 -2.465 -2.465 v -4.371 h 11.273 v 4.371 C 89.105 54.915 87.999 56.02 86.64 56.02 z M 79.884 51.238 v 2.318 c 0 0.227 0.185 0.412 0.412 0.412 h 6.343 c 0.227 0 0.412 -0.185 0.412 -0.412 v -2.318 H 79.884 z" style="stroke: none; stroke-width: 1; stroke-dasharray: none; stroke-linecap: butt; stroke-linejoin: miter; stroke-miterlimit: 10; fill: rgb(69,69,69); fill-rule: nonzero; opacity: 1;" transform=" matrix(1 0 0 1 0 0) " stroke-linecap="round" />
	<path d="M 87.796 34.744 l -4.218 -4.38 l -2.543 -8.858 c -0.437 -1.127 -1.521 -1.869 -2.729 -1.869 H 65.631 h -9.611 c -1.208 0 -2.292 0.742 -2.729 1.869 l -2.543 8.858 l -4.218 4.38 c -0.989 1.027 -1.506 2.418 -1.427 3.841 l 0.643 11.626 h 10.602 c 0.807 0 1.566 -0.388 2.038 -1.043 v 0 c 0.472 -0.655 1.231 -1.043 2.038 -1.043 h 13.478 c 0.807 0 1.566 0.388 2.038 1.043 v 0 c 0.472 0.655 1.231 1.043 2.038 1.043 H 88.58 l 0.643 -11.626 C 89.301 37.162 88.784 35.77 87.796 34.744 z" style="stroke: none; stroke-width: 1; stroke-dasharray: none; stroke-linecap: butt; stroke-linejoin: miter; stroke-miterlimit: 10; fill: rgb(122,226,84); fill-rule: nonzero; opacity: 1;" transform=" matrix(1 0 0 1 0 0) " stroke-linecap="round" />
	<path d="M 88.58 50.981 H 77.979 c -1.052 0 -2.047 -0.509 -2.663 -1.362 c -0.327 -0.453 -0.855 -0.724 -1.414 -0.724 H 60.424 c -0.559 0 -1.087 0.271 -1.414 0.723 c -0.616 0.853 -1.611 1.363 -2.663 1.363 H 45.746 c -0.409 0 -0.746 -0.319 -0.769 -0.727 l -0.643 -11.627 c -0.09 -1.631 0.508 -3.242 1.641 -4.418 l 4.085 -4.242 l 2.49 -8.675 c 0.007 -0.022 0.014 -0.044 0.022 -0.066 c 0.547 -1.412 1.932 -2.361 3.447 -2.361 h 22.287 c 1.515 0 2.9 0.949 3.447 2.361 c 0.009 0.022 0.016 0.044 0.022 0.066 l 2.49 8.675 l 4.085 4.242 c 1.133 1.176 1.732 2.787 1.641 4.418 l -0.643 11.627 C 89.326 50.662 88.988 50.981 88.58 50.981 z M 60.424 47.356 h 13.478 c 1.052 0 2.047 0.509 2.663 1.362 c 0.327 0.453 0.855 0.724 1.414 0.724 h 9.873 l 0.602 -10.899 c 0.067 -1.205 -0.375 -2.395 -1.212 -3.265 l 0 0 l -4.217 -4.38 c -0.087 -0.09 -0.151 -0.201 -0.185 -0.322 l -2.533 -8.822 c -0.327 -0.807 -1.126 -1.348 -1.999 -1.348 H 56.019 c -0.873 0 -1.672 0.54 -1.999 1.348 l -2.532 8.822 c -0.035 0.121 -0.098 0.231 -0.185 0.322 l -4.218 4.38 c -0.837 0.869 -1.279 2.059 -1.213 3.265 l 0.603 10.899 h 9.873 c 0.559 0 1.087 -0.271 1.414 -0.724 C 58.376 47.865 59.372 47.356 60.424 47.356 z" style="stroke: none; stroke-width: 1; stroke-dasharray: none; stroke-linecap: butt; stroke-linejoin: miter; stroke-miterlimit: 10; fill: rgb(122,226,84); fill-rule: nonzero; opacity: 1;" transform=" matrix(1 0 0 1 0 0) " stroke-linecap="round" />
	<path d="M 76.367 42.659 l 8.343 -0.692 c 0.653 -0.054 1.19 -0.534 1.318 -1.176 l 0.256 -1.284 c 0.208 -1.044 -0.73 -1.956 -1.768 -1.717 l -8.599 1.976 c -0.667 0.153 -1.139 0.747 -1.139 1.431 v 0 C 74.778 42.055 75.511 42.73 76.367 42.659 z" style="stroke: none; stroke-width: 1; stroke-dasharray: none; stroke-linecap: butt; stroke-linejoin: miter; stroke-miterlimit: 10; fill: rgb(255,255,255); fill-rule: nonzero; opacity: 1;" transform=" matrix(1 0 0 1 0 0) " stroke-linecap="round" />
	<path d="M 77.874 20.053 H 65.69 h -9.238 c -1.161 0 -2.203 0.714 -2.623 1.796 l -2.444 8.514 l 0 0 h 31.556 l 0 0 l -2.444 -8.514 C 80.077 20.767 79.035 20.053 77.874 20.053 z" style="stroke: none; stroke-width: 1; stroke-dasharray: none; stroke-linecap: butt; stroke-linejoin: miter; stroke-miterlimit: 10; fill: rgb(229,229,229); fill-rule: nonzero; opacity: 1;" transform=" matrix(1 0 0 1 0 0) " stroke-linecap="round" />
	<path d="M 18.733 63.274 v 4.525 c 0 1.075 0.871 1.946 1.946 1.946 h 8.582 c 1.075 0 1.946 -0.871 1.946 -1.946 v -4.525 H 18.733 z" style="stroke: none; stroke-width: 1; stroke-dasharray: none; stroke-linecap: butt; stroke-linejoin: miter; stroke-miterlimit: 10; fill: rgb(69,69,69); fill-rule: nonzero; opacity: 1;" transform=" matrix(1 0 0 1 0 0) " stroke-linecap="round" />
	<path d="M 29.261 71.133 h -8.582 c -1.839 0 -3.335 -1.496 -3.335 -3.335 v -5.913 h 15.252 v 5.913 C 32.596 69.638 31.1 71.133 29.261 71.133 z M 20.121 64.663 v 3.136 c 0 0.307 0.25 0.557 0.557 0.557 h 8.582 c 0.307 0 0.557 -0.25 0.557 -0.557 v -3.136 H 20.121 z" style="stroke: none; stroke-width: 1; stroke-dasharray: none; stroke-linecap: butt; stroke-linejoin: miter; stroke-miterlimit: 10; fill: rgb(69,69,69); fill-rule: nonzero; opacity: 1;" transform=" matrix(1 0 0 1 0 0) " stroke-linecap="round" />
	<path d="M 62.853 63.274 v 4.525 c 0 1.075 0.871 1.946 1.946 1.946 h 8.582 c 1.075 0 1.946 -0.871 1.946 -1.946 v -4.525 H 62.853 z" style="stroke: none; stroke-width: 1; stroke-dasharray: none; stroke-linecap: butt; stroke-linejoin: miter; stroke-miterlimit: 10; fill: rgb(69,69,69); fill-rule: nonzero; opacity: 1;" transform=" matrix(1 0 0 1 0 0) " stroke-linecap="round" />
	<path d="M 73.381 71.133 h -8.582 c -1.839 0 -3.335 -1.496 -3.335 -3.335 v -5.913 h 15.251 v 5.913 C 76.715 69.638 75.22 71.133 73.381 71.133 z M 64.241 64.663 v 3.136 c 0 0.307 0.25 0.557 0.557 0.557 h 8.582 c 0.307 0 0.557 -0.25 0.557 -0.557 v -3.136 H 64.241 z" style="stroke: none; stroke-width: 1; stroke-dasharray: none; stroke-linecap: butt; stroke-linejoin: miter; stroke-miterlimit: 10; fill: rgb(69,69,69); fill-rule: nonzero; opacity: 1;" transform=" matrix(1 0 0 1 0 0) " stroke-linecap="round" />
	<path d="M 74.945 42.347 l -5.706 -5.925 l -3.44 -11.985 c -0.591 -1.524 -2.057 -2.529 -3.692 -2.529 H 44.957 H 31.953 c -1.635 0 -3.101 1.005 -3.692 2.529 l -3.44 11.985 l -5.706 5.926 c -1.338 1.389 -2.037 3.272 -1.93 5.197 l 0.87 15.73 h 14.343 c 1.092 0 2.118 -0.525 2.757 -1.411 l 0 0 c 0.639 -0.886 1.665 -1.411 2.757 -1.411 h 18.235 c 1.092 0 2.118 0.525 2.757 1.411 l 0 0 c 0.639 0.886 1.665 1.411 2.757 1.411 h 14.343 l 0.87 -15.73 C 76.982 45.619 76.282 43.736 74.945 42.347 z" style="stroke: none; stroke-width: 1; stroke-dasharray: none; stroke-linecap: butt; stroke-linejoin: miter; stroke-miterlimit: 10; fill: rgb(233,83,83); fill-rule: nonzero; opacity: 1;" transform=" matrix(1 0 0 1 0 0) " stroke-linecap="round" />
	<path d="M 76.006 64.316 H 61.663 c -1.423 0 -2.77 -0.689 -3.602 -1.843 c -0.442 -0.613 -1.157 -0.979 -1.913 -0.979 H 37.912 c -0.756 0 -1.471 0.366 -1.912 0.978 c -0.833 1.155 -2.18 1.844 -3.602 1.844 H 18.054 c -0.553 0 -1.009 -0.432 -1.04 -0.984 l -0.87 -15.73 c -0.122 -2.207 0.688 -4.386 2.22 -5.977 l 5.527 -5.739 l 3.369 -11.736 c 0.009 -0.03 0.019 -0.06 0.03 -0.089 c 0.74 -1.91 2.614 -3.194 4.663 -3.194 h 30.153 c 2.049 0 3.923 1.284 4.663 3.194 c 0.012 0.029 0.022 0.059 0.03 0.089 l 3.369 11.736 l 5.526 5.739 c 1.533 1.592 2.343 3.77 2.221 5.977 l -0.869 15.73 C 77.015 63.884 76.558 64.316 76.006 64.316 z M 37.912 59.41 h 18.235 c 1.423 0 2.77 0.689 3.602 1.843 c 0.442 0.613 1.157 0.979 1.913 0.979 H 75.02 l 0.814 -14.746 c 0.09 -1.631 -0.508 -3.241 -1.64 -4.417 l 0 0 l -5.706 -5.925 c -0.118 -0.122 -0.204 -0.272 -0.251 -0.435 l -3.427 -11.936 c -0.442 -1.092 -1.524 -1.823 -2.705 -1.823 H 31.953 c -1.181 0 -2.263 0.731 -2.705 1.823 l -3.426 11.936 c -0.047 0.163 -0.133 0.313 -0.251 0.435 l -5.706 5.925 c -1.133 1.176 -1.731 2.786 -1.641 4.417 l 0.815 14.746 h 13.358 c 0.756 0 1.471 -0.366 1.913 -0.979 C 35.142 60.099 36.489 59.41 37.912 59.41 z" style="stroke: none; stroke-width: 1; stroke-dasharray: none; stroke-linecap: butt; stroke-linejoin: miter; stroke-miterlimit: 10; fill: rgb(233,83,83); fill-rule: nonzero; opacity: 1;" transform=" matrix(1 0 0 1 0 0) " stroke-linecap="round" />
	<path d="M 33.946 53.056 L 22.659 52.12 c -0.883 -0.073 -1.61 -0.722 -1.784 -1.591 l -0.346 -1.737 c -0.282 -1.413 0.988 -2.646 2.392 -2.324 l 11.633 2.673 c 0.902 0.207 1.541 1.01 1.541 1.936 v 0 C 36.096 52.239 35.104 53.152 33.946 53.056 z" style="stroke: none; stroke-width: 1; stroke-dasharray: none; stroke-linecap: butt; stroke-linejoin: miter; stroke-miterlimit: 10; fill: rgb(255,255,255); fill-rule: nonzero; opacity: 1;" transform=" matrix(1 0 0 1 0 0) " stroke-linecap="round" />
	<path d="M 59.482 53.056 L 70.77 52.12 c 0.883 -0.073 1.61 -0.722 1.784 -1.591 l 0.346 -1.737 c 0.282 -1.413 -0.988 -2.646 -2.392 -2.324 l -11.633 2.673 c -0.902 0.207 -1.541 1.01 -1.541 1.936 v 0 C 57.332 52.239 58.325 53.152 59.482 53.056 z" style="stroke: none; stroke-width: 1; stroke-dasharray: none; stroke-linecap: butt; stroke-linejoin: miter; stroke-miterlimit: 10; fill: rgb(255,255,255); fill-rule: nonzero; opacity: 1;" transform=" matrix(1 0 0 1 0 0) " stroke-linecap="round" />
	<path d="M 61.521 22.472 H 45.037 H 32.539 c -1.571 0 -2.981 0.966 -3.549 2.431 l -3.306 11.519 l 0 0 h 42.693 l 0 0 L 65.07 24.902 C 64.502 23.437 63.092 22.472 61.521 22.472 z" style="stroke: none; stroke-width: 1; stroke-dasharray: none; stroke-linecap: butt; stroke-linejoin: miter; stroke-miterlimit: 10; fill: rgb(229,229,229); fill-rule: nonzero; opacity: 1;" transform=" matrix(1 0 0 1 0 0) " stroke-linecap="round" />
	<path d="M 53.732 57.37 H 40.327 c -0.375 0 -0.679 -0.303 -0.679 -0.679 s 0.304 -0.679 0.679 -0.679 h 13.406 c 0.375 0 0.679 0.303 0.679 0.679 S 54.107 57.37 53.732 57.37 z" style="stroke: none; stroke-width: 1; stroke-dasharray: none; stroke-linecap: butt; stroke-linejoin: miter; stroke-miterlimit: 10; fill: rgb(188,68,68); fill-rule: nonzero; opacity: 1;" transform=" matrix(1 0 0 1 0 0) " stroke-linecap="round" />
	<path d="M 53.732 53.977 H 40.327 c -0.375 0 -0.679 -0.303 -0.679 -0.679 c 0 -0.375 0.304 -0.679 0.679 -0.679 h 13.406 c 0.375 0 0.679 0.303 0.679 0.679 C 54.411 53.674 54.107 53.977 53.732 53.977 z" style="stroke: none; stroke-width: 1; stroke-dasharray: none; stroke-linecap: butt; stroke-linejoin: miter; stroke-miterlimit: 10; fill: rgb(188,68,68); fill-rule: nonzero; opacity: 1;" transform=" matrix(1 0 0 1 0 0) " stroke-linecap="round" />
</g>
</svg>